<svg width="50" height="50" viewBox="0 0 50 50" fill="none" xmlns="http://www.w3.org/2000/svg">
<path fill-rule="evenodd" clip-rule="evenodd" d="M0 25C0 11.1929 11.1929 0 25 0C38.8071 0 50 11.1929 50 25C50 38.8071 38.8071 50 25 50C11.1929 50 0 38.8071 0 25Z" fill="#009FE3" fill-opacity="0.05"/>
<path fill-rule="evenodd" clip-rule="evenodd" d="M27 23C27 22.4477 27.4477 22 28 22H33C33.5523 22 34 22.4477 34 23C34 23.5523 33.5523 24 33 24H28C27.4477 24 27 23.5523 27 23Z" fill="#009FE3"/>
<path fill-rule="evenodd" clip-rule="evenodd" d="M27 27C27 26.4477 27.4477 26 28 26H33C33.5523 26 34 26.4477 34 27C34 27.5523 33.5523 28 33 28H28C27.4477 28 27 27.5523 27 27Z" fill="#009FE3"/>
<path fill-rule="evenodd" clip-rule="evenodd" d="M20.5127 22C19.4081 22 18.5127 22.8954 18.5127 24C18.5127 25.1046 19.4081 26 20.5127 26C21.6173 26 22.5127 25.1046 22.5127 24C22.5127 22.8954 21.6173 22 20.5127 22ZM16.5127 24C16.5127 21.7909 18.3036 20 20.5127 20C22.7218 20 24.5127 21.7909 24.5127 24C24.5127 26.2091 22.7218 28 20.5127 28C18.3036 28 16.5127 26.2091 16.5127 24Z" fill="#009FE3"/>
<path fill-rule="evenodd" clip-rule="evenodd" d="M20.5124 27.9922C19.8463 27.9922 19.1991 28.2139 18.6729 28.6223C18.1467 29.0308 17.7714 29.6028 17.6062 30.2481C17.4692 30.7831 16.9244 31.1058 16.3894 30.9688C15.8544 30.8318 15.5317 30.287 15.6687 29.752C15.9441 28.6765 16.5696 27.7232 17.4466 27.0424C18.3236 26.3617 19.4022 25.9922 20.5124 25.9922C21.6227 25.9922 22.7013 26.3617 23.5783 27.0424C24.4553 27.7232 25.0808 28.6765 25.3562 29.752C25.4932 30.287 25.1705 30.8318 24.6355 30.9688C24.1005 31.1058 23.5557 30.7831 23.4187 30.2481C23.2535 29.6028 22.8782 29.0308 22.352 28.6223C21.8258 28.2139 21.1786 27.9922 20.5124 27.9922Z" fill="#009FE3"/>
<path fill-rule="evenodd" clip-rule="evenodd" d="M12 16C12 14.8954 12.8954 14 14 14H36C37.1046 14 38 14.8954 38 16V34C38 35.1046 37.1046 36 36 36H14C12.8954 36 12 35.1046 12 34V16ZM36 16H14V34H36V16Z" fill="#009FE3"/>
</svg>
