<svg width="50" height="50" viewBox="0 0 50 50" fill="none" xmlns="http://www.w3.org/2000/svg">
<path fill-rule="evenodd" clip-rule="evenodd" d="M0 25C0 11.1929 11.1929 0 25 0C38.8071 0 50 11.1929 50 25C50 38.8071 38.8071 50 25 50C11.1929 50 0 38.8071 0 25Z" fill="#FF0000" fill-opacity="0.05"/>
<path d="M24.9993 26.9993C25.5518 26.9993 25.9993 26.5518 25.9993 25.9994V18.9997C25.9993 18.4473 25.5518 17.9998 24.9993 17.9998C24.4469 17.9998 23.9994 18.4473 23.9994 18.9997V25.9994C23.9994 26.5518 24.4469 26.9993 24.9993 26.9993Z" fill="#FF0000"/>
<path d="M37.4187 19.0297L30.9665 12.5788C30.5978 12.2113 30.0866 12.0001 29.5654 12.0001H20.4408C19.9083 11.9951 19.4084 12.2038 19.0309 12.5801L12.5787 19.0322C12.2037 19.4085 11.9988 19.9097 12 20.4372V29.5579C11.9988 30.0817 12.2087 30.5954 12.58 30.9691L19.0309 37.4213C19.4059 37.795 19.9033 38 20.4283 38H29.5566C30.0803 37.9975 30.594 37.7913 30.9678 37.42L37.4187 30.9691C37.7887 30.5979 37.9999 30.0842 37.9974 29.5642V20.4409C37.9999 19.9097 37.7937 19.4085 37.4174 19.0297H37.4187ZM29.5541 13.995L29.5566 13.9975L29.5516 13.995H29.5541ZM29.5616 35.9989L20.4446 36.0039L13.9999 29.5617L13.9949 20.4447L20.4371 14H29.5604L35.9988 20.4372L36.0038 29.5542L29.5616 35.9989Z" fill="#FF0000"/>
<path d="M24.9993 31.9991C25.8277 31.9991 26.4993 31.3275 26.4993 30.4991C26.4993 29.6708 25.8277 28.9992 24.9993 28.9992C24.171 28.9992 23.4994 29.6708 23.4994 30.4991C23.4994 31.3275 24.171 31.9991 24.9993 31.9991Z" fill="#FF0000"/>
</svg>
