<svg width="50" height="50" viewBox="0 0 50 50" fill="none" xmlns="http://www.w3.org/2000/svg">
<path fill-rule="evenodd" clip-rule="evenodd" d="M0 25C0 11.1929 11.1929 0 25 0C38.8071 0 50 11.1929 50 25C50 38.8071 38.8071 50 25 50C11.1929 50 0 38.8071 0 25Z" fill="#B2B1FF" fill-opacity="0.25"/>
<path d="M34.9697 22.5V21.25C34.9697 20.2554 34.5746 19.3016 33.8714 18.5983C33.1681 17.8951 32.2143 17.5 31.2197 17.5H23.3709L22.9756 16.3142C22.7267 15.5675 22.2492 14.918 21.6107 14.4578C20.9722 13.9976 20.2051 13.75 19.418 13.75H14.9697C13.9752 13.75 13.0213 14.1451 12.3181 14.8483C11.6148 15.5516 11.2197 16.5054 11.2197 17.5V33.75C11.2197 34.413 11.4831 35.0489 11.952 35.5178C12.4208 35.9866 13.0567 36.25 13.7197 36.25H14.1333C14.7187 36.25 15.2856 36.0445 15.7351 35.6694C16.1846 35.2942 16.4882 34.7732 16.593 34.1972L18.3465 24.5528C18.4512 23.9768 18.7548 23.4558 19.2043 23.0806C19.6538 22.7055 20.2207 22.5 20.8062 22.5H34.9697Z" fill="#6563FF"/>
<path d="M37.5298 22.5H20.8062C20.2207 22.5 19.6538 22.7055 19.2043 23.0806C18.7548 23.4557 18.4512 23.9767 18.3465 24.5528L16.5929 34.1972C16.4882 34.7732 16.1847 35.2942 15.7352 35.6693C15.2857 36.0445 14.7188 36.25 14.1333 36.25H34.4411C35.0265 36.25 35.5934 36.0445 36.0429 35.6693C36.4924 35.2942 36.796 34.7732 36.9007 34.1972L38.7596 23.9736C38.7924 23.7935 38.7852 23.6083 38.7385 23.4313C38.6918 23.2543 38.6068 23.0896 38.4895 22.9491C38.3721 22.8085 38.2254 22.6954 38.0595 22.6178C37.8937 22.5402 37.7128 22.5 37.5298 22.5Z" fill="#B2B1FF"/>
</svg>
