<svg width="50" height="50" viewBox="0 0 50 50" fill="none" xmlns="http://www.w3.org/2000/svg">
<path fill-rule="evenodd" clip-rule="evenodd" d="M0 25C0 11.1929 11.1929 0 25 0C38.8071 0 50 11.1929 50 25C50 38.8071 38.8071 50 25 50C11.1929 50 0 38.8071 0 25Z" fill="#049B13" fill-opacity="0.05"/>
<path fill-rule="evenodd" clip-rule="evenodd" d="M31.2236 21.3097C31.6048 21.7093 31.5899 22.3423 31.1903 22.7236L23.8528 29.7236C23.4662 30.0924 22.8579 30.0921 22.4716 29.723L18.8091 26.223C18.4098 25.8414 18.3955 25.2084 18.777 24.8091C19.1586 24.4098 19.7916 24.3955 20.1909 24.777L23.1631 27.6174L29.8097 21.2765C30.2093 20.8952 30.8423 20.9101 31.2236 21.3097Z" fill="#049B13"/>
<path fill-rule="evenodd" clip-rule="evenodd" d="M25 14C18.9249 14 14 18.9249 14 25C14 31.0751 18.9249 36 25 36C31.0751 36 36 31.0751 36 25C36 18.9249 31.0751 14 25 14ZM12 25C12 17.8203 17.8203 12 25 12C32.1797 12 38 17.8203 38 25C38 32.1797 32.1797 38 25 38C17.8203 38 12 32.1797 12 25Z" fill="#049B13"/>
</svg>
