<svg width="50" height="50" viewBox="0 0 50 50" fill="none" xmlns="http://www.w3.org/2000/svg">
<path fill-rule="evenodd" clip-rule="evenodd" d="M0 25C0 11.1929 11.1929 0 25 0C38.8071 0 50 11.1929 50 25C50 38.8071 38.8071 50 25 50C11.1929 50 0 38.8071 0 25Z" fill="#F82FD8" fill-opacity="0.05"/>
<path fill-rule="evenodd" clip-rule="evenodd" d="M25 17C19.4772 17 15 21.4772 15 27C15 32.5228 19.4772 37 25 37C30.5228 37 35 32.5228 35 27C35 21.4772 30.5228 17 25 17ZM13 27C13 20.3726 18.3726 15 25 15C31.6274 15 37 20.3726 37 27C37 33.6274 31.6274 39 25 39C18.3726 39 13 33.6274 13 27Z" fill="#F82FD8"/>
<path fill-rule="evenodd" clip-rule="evenodd" d="M30.6571 21.3429C31.0476 21.7335 31.0476 22.3666 30.6571 22.7572L25.7071 27.7072C25.3166 28.0977 24.6834 28.0977 24.2929 27.7072C23.9024 27.3166 23.9024 26.6835 24.2929 26.2929L29.2429 21.3429C29.6334 20.9524 30.2666 20.9524 30.6571 21.3429Z" fill="#F82FD8"/>
<path fill-rule="evenodd" clip-rule="evenodd" d="M21 12C21 11.4477 21.4477 11 22 11H28C28.5523 11 29 11.4477 29 12C29 12.5523 28.5523 13 28 13H22C21.4477 13 21 12.5523 21 12Z" fill="#F82FD8"/>
</svg>
