<svg width="36" height="36" viewBox="0 0 36 36" fill="none" xmlns="http://www.w3.org/2000/svg">
<path d="M1 18C1 21.6829 1.19864 24.5742 1.7042 26.849C2.20723 29.1124 3.00072 30.7038 4.14848 31.8515C5.29625 32.9993 6.88756 33.7928 9.151 34.2958C11.4258 34.8014 14.3171 35 18 35C21.6829 35 24.5742 34.8014 26.849 34.2958C29.1124 33.7928 30.7038 32.9993 31.8515 31.8515C32.9993 30.7038 33.7928 29.1124 34.2958 26.849C34.8014 24.5742 35 21.6829 35 18C35 14.3171 34.8014 11.4258 34.2958 9.151C33.7928 6.88756 32.9993 5.29625 31.8515 4.14848C30.7038 3.00072 29.1124 2.20723 26.849 1.7042C24.5742 1.19865 21.6829 1 18 1C14.3171 1 11.4258 1.19865 9.151 1.7042C6.88756 2.20723 5.29625 3.00072 4.14848 4.14848C3.00072 5.29625 2.20723 6.88756 1.7042 9.151C1.19864 11.4258 1 14.3171 1 18Z" stroke="#212135" stroke-width="2" stroke-linecap="round" stroke-linejoin="round"/>
<path d="M14.1001 12.3L8.1001 18.3M8.1001 18.3H27.3001M8.1001 18.3L14.1001 24.3" stroke="#212135" stroke-width="2" stroke-linecap="round" stroke-linejoin="round"/>
</svg>
