<svg width="22" height="23" viewBox="0 0 22 23" fill="none" xmlns="http://www.w3.org/2000/svg">
<path d="M14.3109 3.64104C15.7164 4.214 16.9085 5.13938 17.7446 6.30635C18.5807 7.47333 19.0253 8.83244 19.0251 10.2209V15.2381L20.8806 18.5465C20.9662 18.699 21.007 18.8687 20.999 19.0393C20.9911 19.21 20.9347 19.376 20.8352 19.5215C20.7357 19.667 20.5964 19.7871 20.4307 19.8704C20.2649 19.9537 20.0782 19.9974 19.8884 19.9973H14.1454C13.9161 20.5828 13.4906 21.0899 12.9275 21.4487C12.3644 21.8074 11.6916 22 11.0017 22C10.3118 22 9.63889 21.8074 9.07581 21.4487C8.51273 21.0899 8.08721 20.5828 7.85794 19.9973H2.11158C1.92175 19.9974 1.73506 19.9537 1.56933 19.8704C1.40359 19.7871 1.26433 19.667 1.16484 19.5215C1.06534 19.376 1.00893 19.21 1.00098 19.0393C0.993023 18.8687 1.0338 18.699 1.11941 18.5465L2.97487 15.2381V10.2209C2.975 8.83211 3.42008 7.47277 4.25678 6.30576C5.09348 5.13875 6.28632 4.21356 7.6924 3.64104C7.7898 2.91285 8.18031 2.24202 8.79008 1.75537C9.39986 1.26873 10.1866 1 11.0017 1C11.8167 1 12.6035 1.26873 13.2133 1.75537C13.823 2.24202 14.2135 2.91285 14.3109 3.64104Z" stroke="black"/>
</svg>
