<svg width="36" height="36" viewBox="0 0 36 36" fill="none" xmlns="http://www.w3.org/2000/svg">
<path d="M18 36C27.9411 36 36 27.9411 36 18C36 8.05887 27.9411 0 18 0C8.05887 0 0 8.05887 0 18C0 27.9411 8.05887 36 18 36Z" fill="white" fill-opacity="0.2"/>
<path d="M13.5 26C13.1022 26 12.7206 25.8314 12.4393 25.5314C12.158 25.2313 12 24.8243 12 24.4C12 23.9757 12.158 23.5687 12.4393 23.2686C12.7206 22.9686 13.1022 22.8 13.5 22.8H22.5C22.8978 22.8 23.2794 22.9686 23.5607 23.2686C23.842 23.5687 24 23.9757 24 24.4C24 24.8243 23.842 25.2313 23.5607 25.5314C23.2794 25.8314 22.8978 26 22.5 26H13.5ZM11.5 19.6C11.1022 19.6 10.7206 19.4314 10.4393 19.1314C10.158 18.8313 10 18.4243 10 18C10 17.5757 10.158 17.1687 10.4393 16.8686C10.7206 16.5686 11.1022 16.4 11.5 16.4H24.5C24.8978 16.4 25.2794 16.5686 25.5607 16.8686C25.842 17.1687 26 17.5757 26 18C26 18.4243 25.842 18.8313 25.5607 19.1314C25.2794 19.4314 24.8978 19.6 24.5 19.6H11.5ZM9.5 13.2C9.10218 13.2 8.72064 13.0314 8.43934 12.7314C8.15804 12.4313 8 12.0243 8 11.6C8 11.1757 8.15804 10.7687 8.43934 10.4686C8.72064 10.1686 9.10218 10 9.5 10H26.5C26.8978 10 27.2794 10.1686 27.5607 10.4686C27.842 10.7687 28 11.1757 28 11.6C28 12.0243 27.842 12.4313 27.5607 12.7314C27.2794 13.0314 26.8978 13.2 26.5 13.2H9.5Z" fill="#262628"/>
</svg>
