<svg width="80" height="80" viewBox="0 0 80 80" fill="none" xmlns="http://www.w3.org/2000/svg">
<rect width="80" height="80" rx="40" fill="#009EFD"/>
<path d="M31.013 41.2519H35.1794V58.5807C35.1794 58.9229 35.4537 59.2001 35.7924 59.2001H42.8566C43.1953 59.2001 43.4697 58.9229 43.4697 58.5807V41.3335H48.2593C48.5707 41.3335 48.8328 41.0975 48.8683 40.7849L49.5957 34.4053C49.6157 34.2298 49.5607 34.054 49.4445 33.9223C49.3281 33.7906 49.1616 33.7151 48.9869 33.7151H43.4699V29.716C43.4699 28.5106 44.1124 27.8992 45.3797 27.8992C45.5604 27.8992 48.9869 27.8992 48.9869 27.8992C49.3255 27.8992 49.5999 27.6219 49.5999 27.2799V21.424C49.5999 21.0818 49.3255 20.8046 48.9869 20.8046H44.0157C43.9806 20.8029 43.9027 20.8 43.788 20.8C42.9254 20.8 39.9273 20.9711 37.5589 23.1723C34.9348 25.6116 35.2996 28.5322 35.3868 29.0386V33.715H31.0129C30.6743 33.715 30.3999 33.9922 30.3999 34.3343V40.6325C30.4 40.9745 30.6744 41.2519 31.013 41.2519Z" fill="white"/>
</svg>
