<svg width="80" height="80" viewBox="0 0 80 80" fill="none" xmlns="http://www.w3.org/2000/svg">
<circle cx="40" cy="40" r="39.5" stroke="#DEDEDE"/>
<g clip-path="url(#clip0_1650_348)">
<path d="M29.3105 44.0058L27.9739 48.9957L23.0885 49.099C21.6284 46.391 20.8003 43.2927 20.8003 40.0002C20.8003 36.8164 21.5746 33.814 22.9471 31.1703H22.9481L27.2975 31.9677L29.2028 36.291C28.8041 37.4536 28.5867 38.7016 28.5867 40.0002C28.5869 41.4096 28.8422 42.76 29.3105 44.0058Z" fill="#FBBB00"/>
<path d="M58.865 36.4133C59.0855 37.5748 59.2005 38.7743 59.2005 40.0001C59.2005 41.3747 59.056 42.7156 58.7807 44.009C57.846 48.4102 55.4038 52.2533 52.0206 54.973L52.0196 54.9719L46.5413 54.6924L45.7659 49.8523C48.0108 48.5357 49.7652 46.4754 50.6894 44.009H40.4226V36.4133H50.8391H58.865Z" fill="#518EF8"/>
<path d="M52.0192 54.972L52.0202 54.973C48.7299 57.6178 44.5502 59.2002 40.0002 59.2002C32.6884 59.2002 26.3313 55.1134 23.0884 49.0991L29.3105 44.0059C30.9319 48.3332 35.1063 51.4137 40.0002 51.4137C42.1037 51.4137 44.0744 50.845 45.7655 49.8523L52.0192 54.972Z" fill="#28B446"/>
<path d="M52.2555 25.2204L46.0355 30.3126C44.2854 29.2186 42.2166 28.5867 40.0002 28.5867C34.9955 28.5867 30.743 31.8084 29.2028 36.291L22.9481 31.1703H22.947C26.1425 25.0094 32.5797 20.8002 40.0002 20.8002C44.6588 20.8002 48.9303 22.4596 52.2555 25.2204Z" fill="#F14336"/>
</g>
<defs>
<clipPath id="clip0_1650_348">
<rect width="38.4" height="38.4" fill="white" transform="translate(20.8003 20.8002)"/>
</clipPath>
</defs>
</svg>
