<svg width="100" height="100" viewBox="0 0 100 100" fill="none" xmlns="http://www.w3.org/2000/svg">
<rect x="0.5" y="0.5" width="99" height="99" rx="9.5" fill="white"/>
<path fill-rule="evenodd" clip-rule="evenodd" d="M10 50C10 27.9086 27.9086 10 50 10C72.0914 10 90 27.9086 90 50C90 72.0914 72.0914 90 50 90C27.9086 90 10 72.0914 10 50Z" fill="#009FE3" fill-opacity="0.05"/>
<path d="M58.8333 62.9991H42.1667C41.0857 63.0222 40.0402 62.5945 39.2591 61.8096C38.4781 61.0247 38.0253 59.9467 38 58.8119V42.1881C38.0253 41.0533 38.4781 39.9753 39.2591 39.1904C40.0402 38.4055 41.0857 37.9778 42.1667 38.0009H58.8333C59.9143 37.9778 60.9598 38.4055 61.7409 39.1904C62.5219 39.9753 62.9747 41.0533 63 42.1881V58.8119C62.9747 59.9467 62.5219 61.0247 61.7409 61.8096C60.9598 62.5945 59.9143 63.0222 58.8333 62.9991ZM56.1976 48.9689L50.5857 54.2847L57.0012 61.7492H58.8333C59.5986 61.7724 60.3414 61.4764 60.8992 60.9259C61.457 60.3754 61.7843 59.6152 61.8095 58.8119V54.3385L56.1976 48.9689ZM46.5083 51.4062L39.2012 59.0606C39.2914 59.8144 39.6444 60.5064 40.1921 61.0029C40.7398 61.4995 41.4432 61.7653 42.1667 61.7492H55.3964L46.5095 51.4062H46.5083ZM42.1667 39.2508C41.4014 39.2276 40.6586 39.5236 40.1008 40.0741C39.543 40.6246 39.2157 41.3848 39.1905 42.1881V57.312L46.1119 50.0625C46.169 50.0028 46.2371 49.9558 46.312 49.9245C46.3869 49.8932 46.4671 49.8782 46.5477 49.8804C46.6283 49.8827 46.7076 49.9021 46.7809 49.9374C46.8541 49.9728 46.9198 50.0235 46.9738 50.0863L49.7857 53.3573L55.7988 47.6615C55.9083 47.5575 56.0506 47.4999 56.1982 47.4999C56.3458 47.4999 56.4882 47.5575 56.5976 47.6615L61.8095 52.6473V42.1881C61.7843 41.3848 61.457 40.6246 60.8992 40.0741C60.3414 39.5236 59.5986 39.2276 58.8333 39.2508H42.1667ZM45.9643 46.3753C45.5112 46.3743 45.0686 46.2324 44.6924 45.9674C44.3162 45.7024 44.0232 45.3263 43.8505 44.8865C43.6777 44.4468 43.633 43.9632 43.722 43.4968C43.811 43.0304 44.0296 42.6021 44.3503 42.2661C44.671 41.9301 45.0793 41.7014 45.5237 41.609C45.9681 41.5166 46.4287 41.5645 46.8471 41.7468C47.2656 41.929 47.6232 42.2374 47.8748 42.633C48.1264 43.0286 48.2607 43.4936 48.2607 43.9692C48.2595 44.6076 48.0171 45.2194 47.5868 45.6704C47.1566 46.1215 46.5735 46.375 45.9655 46.3753H45.9643ZM45.9643 42.8143C45.7467 42.8153 45.5343 42.8839 45.3538 43.0116C45.1733 43.1392 45.0329 43.3201 44.9503 43.5315C44.8677 43.7428 44.8466 43.9751 44.8896 44.1991C44.9326 44.423 45.0379 44.6286 45.1921 44.7898C45.3463 44.9509 45.5425 45.0606 45.756 45.1048C45.9694 45.149 46.1906 45.1258 46.3915 45.0381C46.5925 44.9505 46.7642 44.8023 46.885 44.6123C47.0058 44.4223 47.0702 44.1989 47.0702 43.9705C47.0696 43.6633 46.9529 43.3689 46.7458 43.1519C46.5387 42.9349 46.2581 42.813 45.9655 42.813L45.9643 42.8143Z" fill="#009FE3"/>
<rect x="0.5" y="0.5" width="99" height="99" rx="9.5" stroke="#DADADA" stroke-dasharray="2 2"/>
</svg>
