<svg width="242" height="83" viewBox="0 0 242 83" fill="none" xmlns="http://www.w3.org/2000/svg">
<g filter="url(#filter0_di_1650_321)">
<path fill-rule="evenodd" clip-rule="evenodd" d="M4 37.5C4 16.7893 20.7893 0 41.5 0C62.2107 0 79 16.7893 79 37.5C79 58.2107 62.2107 75 41.5 75C20.7893 75 4 58.2107 4 37.5Z" fill="url(#paint0_radial_1650_321)"/>
<path fill-rule="evenodd" clip-rule="evenodd" d="M4 37.5C4 16.7893 20.7893 0 41.5 0C62.2107 0 79 16.7893 79 37.5C79 58.2107 62.2107 75 41.5 75C20.7893 75 4 58.2107 4 37.5Z" fill="url(#paint1_radial_1650_321)"/>
</g>
<path d="M44.1307 51.6312C43.4812 51.1912 43.0672 50.4731 43.0973 49.6854C43.174 47.6783 43.6714 43.5654 46.2381 39.6883C48.8049 35.8113 52.375 33.7801 54.1805 32.9441C54.889 32.6161 55.7032 32.73 56.3526 33.17C58.0471 34.318 57.8409 37.0554 56.1698 38.2243C54.4886 39.4002 52.6273 41.0197 51.2575 43.0888C49.8877 45.158 49.1159 47.5156 48.6811 49.5359C48.2489 51.5441 45.8252 52.7792 44.1307 51.6312Z" fill="#FFAA50"/>
<path d="M44.6031 37.8527C45.06 37.2399 45.7605 36.8603 46.5197 36.9041C48.4765 37.0169 52.5037 37.6005 56.0986 40.3434C59.6934 43.0864 61.3547 46.8432 61.9995 48.7155C62.2497 49.4419 62.0814 50.2276 61.6245 50.8404C60.3427 52.5593 57.4807 52.1117 56.3822 50.2607C55.3986 48.6031 54.0486 46.8206 52.277 45.4688C50.5054 44.117 48.4402 43.2937 46.5944 42.7924C44.5332 42.2325 43.3214 39.5717 44.6031 37.8527Z" fill="#FFAA50"/>
<path d="M10.6382 48.4243C10.6382 47.5146 11.1002 46.6713 11.9017 46.2412C14.666 44.7576 21.6723 41.5062 29.9859 41.5062C38.2327 41.5062 44.1178 44.7054 46.4233 46.205C47.1243 46.6609 47.4994 47.4496 47.4994 48.2858C47.4994 50.4237 45.1292 51.8463 43.152 51.033C39.6545 49.5944 34.4366 47.9357 28.9691 47.9357C23.4685 47.9357 18.2851 49.6145 14.8432 51.0591C12.9396 51.8581 10.6382 50.4888 10.6382 48.4243Z" fill="#009FE3"/>
<rect width="34.9138" height="5.84004" rx="2.92002" transform="matrix(-0.495681 -0.868505 -0.86351 0.504331 49.5947 50.3228)" fill="#FFAA50"/>
<rect width="33.0168" height="5.98046" rx="2.99023" transform="matrix(0.400327 -0.916372 0.912925 0.408128 55.3228 50.832)" fill="#FFAA50"/>
<rect width="27.3398" height="5.98958" rx="2.99479" transform="matrix(0.538426 -0.842673 0.836964 0.547258 9 49.6294)" fill="#009FE3"/>
<path d="M97.8807 45.2C96.2807 45.2 94.9807 44.88 93.9807 44.24C92.9807 43.5867 92.2874 42.6933 91.9007 41.56C91.5274 40.4133 91.454 39.1067 91.6807 37.64C91.9207 36.16 92.3874 34.9067 93.0807 33.88C93.7874 32.84 94.694 32.0467 95.8007 31.5C96.9074 30.9533 98.174 30.6867 99.6007 30.7C100.534 30.7 101.367 30.8333 102.101 31.1C102.847 31.3533 103.474 31.7133 103.981 32.18L103.061 34.24C102.501 33.7733 101.947 33.4467 101.401 33.26C100.867 33.0733 100.227 32.98 99.4807 32.98C98.1074 32.98 96.974 33.4 96.0807 34.24C95.1874 35.0667 94.614 36.2533 94.3607 37.8C94.2007 38.84 94.2274 39.7467 94.4407 40.52C94.6674 41.28 95.094 41.8733 95.7207 42.3C96.3474 42.7133 97.1674 42.92 98.1807 42.92C98.8474 42.92 99.5074 42.8133 100.161 42.6C100.814 42.3733 101.454 42.0067 102.081 41.5L102.841 43.52C102.187 44.0533 101.427 44.4667 100.561 44.76C99.694 45.0533 98.8007 45.2 97.8807 45.2ZM108.529 45.2C107.436 45.2 106.522 44.98 105.789 44.54C105.069 44.1 104.556 43.4667 104.249 42.64C103.956 41.8 103.896 40.8 104.069 39.64C104.242 38.56 104.589 37.6533 105.109 36.92C105.642 36.1867 106.302 35.6333 107.089 35.26C107.889 34.8867 108.776 34.7 109.749 34.7C110.856 34.7 111.769 34.92 112.489 35.36C113.209 35.8 113.716 36.4333 114.009 37.26C114.316 38.0867 114.376 39.08 114.189 40.24C114.016 41.32 113.662 42.2267 113.129 42.96C112.609 43.6933 111.956 44.2533 111.169 44.64C110.382 45.0133 109.502 45.2 108.529 45.2ZM108.669 43.28C109.429 43.28 110.082 43.0133 110.629 42.48C111.176 41.9333 111.536 41.12 111.709 40.04C111.896 38.8667 111.789 38.0067 111.389 37.46C110.989 36.9 110.389 36.62 109.589 36.62C108.816 36.62 108.162 36.8933 107.629 37.44C107.096 37.9733 106.742 38.7733 106.569 39.84C106.382 41.0133 106.482 41.88 106.869 42.44C107.256 43 107.856 43.28 108.669 43.28ZM115.605 45L116.805 37.42C116.872 37.0067 116.925 36.5867 116.965 36.16C117.005 35.7333 117.032 35.3133 117.045 34.9H119.465L119.345 36.9L119.085 36.92C119.485 36.1867 120.018 35.6333 120.685 35.26C121.365 34.8867 122.125 34.7 122.965 34.7C124.192 34.7 125.052 35.06 125.545 35.78C126.038 36.4867 126.172 37.5533 125.945 38.98L125.005 45H122.505L123.445 38.98C123.578 38.1533 123.505 37.56 123.225 37.2C122.958 36.84 122.512 36.66 121.885 36.66C121.112 36.66 120.472 36.9 119.965 37.38C119.458 37.8467 119.145 38.4733 119.025 39.26L118.105 45H115.605ZM127.656 45L128.856 37.42C128.922 37.0067 128.976 36.5867 129.016 36.16C129.056 35.7333 129.082 35.3133 129.096 34.9H131.516L131.396 36.9L131.136 36.92C131.536 36.1867 132.069 35.6333 132.736 35.26C133.416 34.8867 134.176 34.7 135.016 34.7C136.242 34.7 137.102 35.06 137.596 35.78C138.089 36.4867 138.222 37.5533 137.996 38.98L137.056 45H134.556L135.496 38.98C135.629 38.1533 135.556 37.56 135.276 37.2C135.009 36.84 134.562 36.66 133.936 36.66C133.162 36.66 132.522 36.9 132.016 37.38C131.509 37.8467 131.196 38.4733 131.076 39.26L130.156 45H127.656ZM144.846 45.2C143.66 45.2 142.673 44.9667 141.886 44.5C141.113 44.0333 140.566 43.38 140.246 42.54C139.926 41.6867 139.853 40.7 140.026 39.58C140.186 38.5667 140.506 37.7 140.986 36.98C141.48 36.2467 142.106 35.6867 142.866 35.3C143.626 34.9 144.493 34.7 145.466 34.7C146.44 34.7 147.24 34.9133 147.866 35.34C148.506 35.7667 148.96 36.3533 149.226 37.1C149.493 37.8333 149.546 38.6867 149.386 39.66L149.286 40.3H141.946L142.146 38.98H147.726L147.346 39.3C147.493 38.3533 147.393 37.64 147.046 37.16C146.713 36.6667 146.153 36.42 145.366 36.42C144.806 36.42 144.32 36.5467 143.906 36.8C143.506 37.0533 143.18 37.4067 142.926 37.86C142.686 38.3 142.526 38.8 142.446 39.36L142.346 40.02C142.2 41.06 142.353 41.8667 142.806 42.44C143.273 43 144.06 43.28 145.166 43.28C145.686 43.28 146.193 43.2067 146.686 43.06C147.193 42.9 147.68 42.6467 148.146 42.3L148.866 43.98C148.32 44.38 147.7 44.6867 147.006 44.9C146.313 45.1 145.593 45.2 144.846 45.2ZM155.544 45.2C154.437 45.2 153.51 44.9733 152.764 44.52C152.017 44.0533 151.484 43.4067 151.164 42.58C150.857 41.74 150.79 40.76 150.964 39.64C151.23 38.0133 151.877 36.7867 152.904 35.96C153.944 35.12 155.224 34.7 156.744 34.7C157.37 34.7 157.977 34.7933 158.564 34.98C159.164 35.1667 159.644 35.44 160.004 35.8L159.184 37.5C158.864 37.2067 158.49 36.9933 158.064 36.86C157.637 36.7133 157.224 36.64 156.824 36.64C155.97 36.64 155.244 36.9067 154.644 37.44C154.057 37.96 153.677 38.7533 153.504 39.82C153.33 40.8733 153.457 41.7067 153.884 42.32C154.324 42.9333 155.01 43.24 155.944 43.24C156.344 43.24 156.77 43.1667 157.224 43.02C157.69 42.86 158.124 42.6133 158.524 42.28L159.244 44C158.83 44.36 158.284 44.6533 157.604 44.88C156.937 45.0933 156.25 45.2 155.544 45.2ZM165.161 45.2C163.907 45.2 163.021 44.88 162.501 44.24C161.994 43.5867 161.834 42.6533 162.021 41.44L162.761 36.78H160.821L161.121 34.9H163.061L163.481 32.32L166.081 31.68L165.561 34.9H168.261L167.961 36.78H165.261L164.561 41.26C164.454 41.9533 164.514 42.4467 164.741 42.74C164.967 43.02 165.321 43.16 165.801 43.16C166.027 43.16 166.234 43.14 166.421 43.1C166.607 43.06 166.794 43.0067 166.981 42.94L166.661 44.92C166.407 45.0133 166.154 45.08 165.901 45.12C165.661 45.1733 165.414 45.2 165.161 45.2ZM180.139 45.2C179.552 44.9867 178.999 44.7 178.479 44.34C177.959 43.9667 177.505 43.5733 177.119 43.16L177.799 43.18C177.172 43.8067 176.419 44.3 175.539 44.66C174.672 45.02 173.759 45.2 172.799 45.2C171.772 45.2 170.899 45.0333 170.179 44.7C169.459 44.3533 168.932 43.88 168.599 43.28C168.279 42.68 168.179 41.98 168.299 41.18C168.432 40.3533 168.799 39.6467 169.399 39.06C170.012 38.46 170.805 37.9 171.779 37.38L172.679 36.9L172.159 37.36C171.679 36.7867 171.345 36.2133 171.159 35.64C170.972 35.0533 170.925 34.4467 171.019 33.82C171.112 33.2333 171.332 32.7067 171.679 32.24C172.025 31.76 172.499 31.3867 173.099 31.12C173.699 30.84 174.425 30.7 175.279 30.7C175.999 30.7 176.619 30.8267 177.139 31.08C177.672 31.3333 178.065 31.7 178.319 32.18C178.572 32.66 178.645 33.24 178.539 33.92C178.472 34.3733 178.299 34.82 178.019 35.26C177.752 35.6867 177.365 36.1 176.859 36.5C176.365 36.9 175.725 37.3 174.939 37.7L174.999 37.16L177.939 40.78H177.459C177.885 40.2333 178.252 39.5933 178.559 38.86C178.879 38.1267 179.119 37.3533 179.279 36.54H181.439C181.225 37.6333 180.899 38.6667 180.459 39.64C180.019 40.6133 179.485 41.4733 178.859 42.22L178.759 41.62C179.065 41.9933 179.425 42.3333 179.839 42.64C180.252 42.9467 180.712 43.2 181.219 43.4L180.139 45.2ZM173.179 43.26C173.845 43.26 174.452 43.1333 174.999 42.88C175.559 42.6267 176.085 42.2533 176.579 41.76L176.339 42.36L172.799 38.1L173.879 38.16L173.119 38.58C172.425 38.9533 171.885 39.3267 171.499 39.7C171.125 40.06 170.892 40.5133 170.799 41.06C170.705 41.7133 170.859 42.2467 171.259 42.66C171.659 43.06 172.299 43.26 173.179 43.26ZM175.179 32.4C174.672 32.4 174.252 32.54 173.919 32.82C173.599 33.1 173.405 33.4467 173.339 33.86C173.299 34.1667 173.299 34.4467 173.339 34.7C173.379 34.94 173.479 35.1933 173.639 35.46C173.799 35.7133 174.025 36.0267 174.319 36.4L173.779 36.44C174.685 35.9867 175.352 35.5733 175.779 35.2C176.219 34.8133 176.472 34.38 176.539 33.9C176.619 33.4333 176.532 33.0667 176.279 32.8C176.025 32.5333 175.659 32.4 175.179 32.4ZM185.565 45L182.825 30.9H185.405L187.405 42.46H186.605L192.585 30.9H194.505L196.505 42.46H195.765L201.625 30.9H204.245L196.985 45H194.845L192.845 34.16H193.265L187.705 45H185.565ZM207.377 45.2C206.283 45.2 205.37 44.98 204.637 44.54C203.917 44.1 203.403 43.4667 203.097 42.64C202.803 41.8 202.743 40.8 202.917 39.64C203.09 38.56 203.437 37.6533 203.957 36.92C204.49 36.1867 205.15 35.6333 205.937 35.26C206.737 34.8867 207.623 34.7 208.597 34.7C209.703 34.7 210.617 34.92 211.337 35.36C212.057 35.8 212.563 36.4333 212.857 37.26C213.163 38.0867 213.223 39.08 213.037 40.24C212.863 41.32 212.51 42.2267 211.977 42.96C211.457 43.6933 210.803 44.2533 210.017 44.64C209.23 45.0133 208.35 45.2 207.377 45.2ZM207.517 43.28C208.277 43.28 208.93 43.0133 209.477 42.48C210.023 41.9333 210.383 41.12 210.557 40.04C210.743 38.8667 210.637 38.0067 210.237 37.46C209.837 36.9 209.237 36.62 208.437 36.62C207.663 36.62 207.01 36.8933 206.477 37.44C205.943 37.9733 205.59 38.7733 205.417 39.84C205.23 41.0133 205.33 41.88 205.717 42.44C206.103 43 206.703 43.28 207.517 43.28ZM214.433 45L215.633 37.48C215.699 37.0533 215.753 36.62 215.793 36.18C215.846 35.74 215.879 35.3133 215.893 34.9H218.313L218.173 37.66H217.733C217.973 36.9933 218.279 36.44 218.653 36C219.039 35.56 219.479 35.2333 219.973 35.02C220.466 34.8067 220.986 34.7 221.533 34.7C221.719 34.7 221.893 34.7133 222.053 34.74C222.213 34.7533 222.366 34.7733 222.513 34.8L222.133 37.02C221.919 36.9267 221.719 36.8667 221.533 36.84C221.359 36.8133 221.139 36.8 220.873 36.8C220.339 36.8 219.859 36.9133 219.433 37.14C219.006 37.3667 218.653 37.6933 218.373 38.12C218.093 38.5333 217.906 39.0333 217.813 39.62L216.953 45H214.433ZM222.304 45L224.644 30.28H227.144L225.724 39.2H225.764L230.444 34.9H233.564L227.704 40.24V39.24L232.324 45H229.324L225.564 40.48H225.524L224.804 45H222.304Z" fill="black"/>
<defs>
<filter id="filter0_di_1650_321" x="0" y="0" width="83" height="83" filterUnits="userSpaceOnUse" color-interpolation-filters="sRGB">
<feFlood flood-opacity="0" result="BackgroundImageFix"/>
<feColorMatrix in="SourceAlpha" type="matrix" values="0 0 0 0 0 0 0 0 0 0 0 0 0 0 0 0 0 0 127 0" result="hardAlpha"/>
<feOffset dy="4"/>
<feGaussianBlur stdDeviation="2"/>
<feComposite in2="hardAlpha" operator="out"/>
<feColorMatrix type="matrix" values="0 0 0 0 0 0 0 0 0 0 0 0 0 0 0 0 0 0 0.25 0"/>
<feBlend mode="normal" in2="BackgroundImageFix" result="effect1_dropShadow_1650_321"/>
<feBlend mode="normal" in="SourceGraphic" in2="effect1_dropShadow_1650_321" result="shape"/>
<feColorMatrix in="SourceAlpha" type="matrix" values="0 0 0 0 0 0 0 0 0 0 0 0 0 0 0 0 0 0 127 0" result="hardAlpha"/>
<feOffset dy="4"/>
<feGaussianBlur stdDeviation="2"/>
<feComposite in2="hardAlpha" operator="arithmetic" k2="-1" k3="1"/>
<feColorMatrix type="matrix" values="0 0 0 0 0 0 0 0 0 0 0 0 0 0 0 0 0 0 0.1 0"/>
<feBlend mode="normal" in2="shape" result="effect2_innerShadow_1650_321"/>
</filter>
<radialGradient id="paint0_radial_1650_321" cx="0" cy="0" r="1" gradientUnits="userSpaceOnUse" gradientTransform="translate(8.60227 75) rotate(-47.1502) scale(96.1619 77.125)">
<stop stop-color="#FFFCF2"/>
<stop offset="0.518578" stop-color="#FFFCF2"/>
<stop offset="0.684961" stop-color="white"/>
</radialGradient>
<radialGradient id="paint1_radial_1650_321" cx="0" cy="0" r="1" gradientUnits="userSpaceOnUse" gradientTransform="translate(76.5 3.5) rotate(134.366) scale(95.8188)">
<stop stop-color="#E3F1FC"/>
<stop offset="0.458951" stop-color="#F0F7FD" stop-opacity="0.541049"/>
<stop offset="1" stop-color="white" stop-opacity="0"/>
</radialGradient>
</defs>
</svg>
