<svg width="338" height="207" viewBox="0 0 338 207" fill="none" xmlns="http://www.w3.org/2000/svg">
<path d="M337.89 91.06H201.227C201.227 91.06 201.327 64.415 218.393 64.415C235.269 64.415 241.593 82.704 251.573 82.704C261.553 82.704 259.796 53.66 277.327 53.66C290.795 53.66 302.356 77.252 322.544 84.085C335.508 88.479 337.89 91.06 337.89 91.06Z" fill="#F2F6F9"/>
<path d="M19.137 33.3H152.52C152.52 33.3 145.937 13.222 132.212 13.222C121.93 13.222 119.45 21.922 109.579 21.922C99.708 21.922 93.097 0 78.172 0C62.472 0 54.722 25.078 40.558 27.826C23.169 31.2 19.137 33.3 19.137 33.3Z" fill="#F2F6F9"/>
<path d="M138.66 206.87H311.068C311.068 206.87 302.568 182.689 284.818 182.689C271.528 182.689 268.318 193.167 255.563 193.167C242.808 193.167 234.26 166.758 214.967 166.758C194.669 166.758 184.66 196.97 166.348 200.279C143.871 204.341 138.66 206.87 138.66 206.87Z" fill="#F2F6F9"/>
<path d="M144.315 171.999H0C0 171.999 4.719 149.899 18.189 149.899C29.812 149.899 39.646 163.074 49.447 163.074C59.248 163.074 64.136 133.899 83.279 133.899C101.086 133.899 115.386 164.522 129.338 167.225C141.364 169.554 144.315 171.999 144.315 171.999Z" fill="#F2F6F9"/>
<path d="M302.723 136.674L296.926 138.218C296.666 142.715 294.96 147.008 292.061 150.456C289.163 153.905 285.227 156.323 280.841 157.352C276.456 158.381 271.855 157.964 267.725 156.165C263.596 154.365 260.158 151.279 257.926 147.366L257.033 146.805C255.442 145.809 254.064 144.509 252.976 142.979C251.888 141.45 251.113 139.721 250.694 137.891C250.276 136.062 250.222 134.167 250.537 132.317C250.851 130.467 251.528 128.697 252.527 127.108C252.894 126.527 253.476 126.114 254.146 125.961C254.816 125.808 255.52 125.926 256.103 126.29L260.38 128.975C261.168 127.05 262.367 125.321 263.894 123.908C264.399 123.441 265.068 123.194 265.755 123.219C266.442 123.245 267.091 123.541 267.56 124.044L279.643 137.044H283.385C283.406 135.429 284.001 133.875 285.063 132.659C286.125 131.443 287.585 130.644 289.183 130.406C290.78 130.168 292.409 130.506 293.78 131.36C295.15 132.214 296.173 133.528 296.663 135.066L296.839 135.112L302.723 136.674Z" fill="#F2F6F9"/>
<path d="M38.9351 79.8481L34.7171 80.9701C34.5302 84.2442 33.2894 87.3701 31.18 89.8811C29.0705 92.3921 26.2055 94.1535 23.0126 94.9024C19.8198 95.6513 16.4704 95.3474 13.4644 94.0362C10.4585 92.7249 7.95723 90.4767 6.33409 87.6271L5.68409 87.2271C4.52676 86.5019 3.52375 85.5558 2.73242 84.4427C1.94109 83.3296 1.37697 82.0714 1.07233 80.7401C0.767689 79.4088 0.728507 78.0305 0.957023 76.684C1.18554 75.3375 1.67727 74.0493 2.40409 72.8931C2.67024 72.4698 3.09312 72.1691 3.58031 72.0567C4.06749 71.9442 4.57937 72.0292 5.00409 72.2931L8.11009 74.2491C8.68451 72.846 9.55935 71.5858 10.6731 70.5571C11.0402 70.2166 11.5275 70.0358 12.0278 70.0545C12.5281 70.0733 13.0005 70.29 13.3411 70.6571L22.1361 80.1171H24.8601C24.863 78.9351 25.2896 77.7934 26.0625 76.8991C26.8354 76.0048 27.9033 75.4173 29.0724 75.2432C30.2414 75.0691 31.4342 75.3199 32.4341 75.9502C33.434 76.5804 34.1749 77.5483 34.5221 78.6781L34.6521 78.7121L38.9351 79.8481Z" fill="#F2F6F9"/>
</svg>
